# xmcd
#
# Track frame offsets:
#	150
#	11042
#	25060
#	40950
#	51492
#	66225
#
# Disc length: 1081 seconds
#
# Revision: 1
# Processed by: cddbd v1.5.2PL0 Copyright (c) Steve Scherf et al.
# Submitted via: audiograbber 1.83.01
#
DISCID=4e043706
DTITLE=Various Artist - Pioneer- Six For Six - New Country
DYEAR=1993
DGENRE=Country
TTITLE0=Shania Twain - Dance With The One That Brought You
TTITLE1=Sammy Kershaw - Don't Go Near The Water
TTITLE2=Toby Keith - Should've Been A Cowboy
TTITLE3=Kentucky Headhunters - It's Chitlin' Time
TTITLE4=Ronna Reeves - The More I Learn
TTITLE5=Gene Watson - In Other Words
EXTD=
EXTT0=
EXTT1=
EXTT2=
EXTT3=
EXTT4=
EXTT5=
PLAYORDER=
